<?xml version="1.0" encoding="utf-8"?>
<!-- Generator: Adobe Illustrator 28.1.0, SVG Export Plug-In . SVG Version: 6.00 Build 0)  -->
<svg version="1.1" id="Capa_1" xmlns="http://www.w3.org/2000/svg" xmlns:xlink="http://www.w3.org/1999/xlink" x="0px" y="0px"
	 viewBox="0 0 1675.4 1686.6" style="enable-background:new 0 0 1675.4 1686.6;" xml:space="preserve">
<style type="text/css">
	.st0{fill:#F5B553;}
</style>
<path class="st0" d="M1351.8,569.2c-13.3-48.1-79.5-257.3-237.1-330.2c-83.4-38.6-177.7-32.2-280.3,19.1
	c-7.5,3.8-11.8,11.9-10.7,20.3c1.2,8.3,7.5,15,15.8,16.6c1.5,0.3,152.1,30.6,157.6,125c5.6,97.3-152.7,183.8-154.3,184.6l18.6,34.6
	c2.9-1.5,31-16.9,63.9-42.2l63.8,84.7c-22.6,15.1-46.6,34.3-71.6,58.6l27.4,28.2c110.5-107.3,192.2-103.7,218.7-98.6l15.7,63.6
	c0.7,2.8,2,5.4,3.8,7.6l70.5,87.6c3.9,4.8,9.6,7.3,15.3,7.3c4.2,0,8.4-1.3,12-4.1l166.7-128.2c6.7-5.1,9.4-14,6.6-22
	C1453.2,678.6,1427,604.2,1351.8,569.2L1351.8,569.2z M1272.3,789.2l-55.7-69.3l-17.4-70.6c-1.5-6.2-6-11.2-11.9-13.6
	c-3.5-1.4-67.7-25.2-164,25.7l-67.6-89.6c43.2-39.5,84.3-93.4,80.8-154c-4.7-81.7-81-125-135.4-145.5
	c72.1-25.6,138.2-24.9,197.1,2.4c157.5,72.8,217.5,311.1,218.1,313.5c1.5,6.2,5.9,11.2,11.8,13.6c47.7,19.1,73.2,59.7,83.6,80.3
	L1272.3,789.2L1272.3,789.2z"/>
<path class="st0" d="M1105.7,1510.2c12.6,10.4,27.3,12.5,37,12.5c5.4,0,9.3-0.7,10.3-0.8c3-0.6,5.8-1.8,8.2-3.6l138.9-104.7
	c8.3-6.3,10.3-17.9,4.5-26.6L599.3,326.8c-0.4-0.6-0.8-1.1-1.3-1.7c-15.6-18.7-51.2-45.8-85.9-28.5c-33.1,16.5-33.5,66.9-31.4,92.8
	l-155.6,94.5c-8.6-7.1-21.2-14.9-36.9-16.9c-17.4-2.3-35.1,3.1-50.9,15.6c-14.4,11.4-23.1,26.4-25.1,43.5
	c-3.8,32.1,16.9,61.1,21.3,66.8c5.6,8.4,69.7,104.7,104.1,159.3c32.1,51,89.6,73.3,113.1,80.6c27,60.3,100.1,73,136.1,75.5V995
	c0,10.9,8.8,19.7,19.7,19.7h104.7l1.8,97.2c0.2,10.2,8.1,18.6,18.3,19.2l106.3,7.3l3.6,99.9c0.4,10.2,8.4,18.4,18.6,18.9l102.1,5.5
	l5.5,102.1c0.6,10.3,9,18.4,19.3,18.6l98.3,1.8v72.6C1084.8,1481.1,1091.8,1498.8,1105.7,1510.2L1105.7,1510.2z M370.8,731.2
	c-36.1-57.3-104.3-159.7-105-160.8c-0.3-0.4-0.6-0.9-0.9-1.2c-2.9-3.7-27.4-36.7-3.3-55.8c7.5-5.9,14.4-8.4,21.3-7.5
	c11,1.3,20.7,11.1,23.5,14.6c6.1,8.1,17.3,10.3,25.9,5l179.6-109c6.8-4.1,10.4-11.9,9.2-19.7c-3.9-26.1-1-60.2,8.6-65
	c12.6-6.3,31.9,11.6,37.5,17.8L765.1,647c-32.5,25.1-111.7,85.6-150.4,110.9C573.6,784.8,485,794.8,467,796.6
	C453.9,792.9,398.6,775.2,370.8,731.2L370.8,731.2z M1005.5,1344.3l-5.4-101.4c-0.5-10-8.5-18.1-18.6-18.6l-101.8-5.4l-3.6-99.6
	c-0.4-10.1-8.3-18.2-18.3-18.9l-106-7.3l-1.8-98.5c-0.2-10.7-8.9-19.3-19.7-19.3H626.1v-86.1c0-5.3-2.2-10.4-6-14.1
	c-3.8-3.7-8.9-5.9-14.3-5.5c-0.8,0-75,1.9-108.8-36.9c37.7-5.3,102-17.4,139.3-41.8c39.5-25.8,116.6-84.7,150.7-111l474.7,713.5
	l-119.5,90.1c-3.2-0.1-7.9-0.7-11.3-3.5c-5.5-4.6-6.7-14.6-6.7-22.2v-91.9c0-10.7-8.6-19.5-19.3-19.7L1005.5,1344.3L1005.5,1344.3z"
	/>
<path class="st0" d="M492.9,693.9l124.3-90.1c10.5-7.6,17.4-18.9,19.5-31.7s-1-25.7-8.6-36.2l-44.6-61.5
	c-7.6-10.5-18.9-17.4-31.7-19.5c-12.8-2-25.7,1-36.2,8.6l-124.3,90.1c-21.7,15.7-26.6,46.2-10.8,67.9l44.6,61.5
	c9.5,13.1,24.4,20.1,39.4,20.1C474.3,703.1,484.2,700.1,492.9,693.9L492.9,693.9z M456.8,660l-44.6-61.5c-3-4.1-2.1-10,2.1-13
	l124.3-90.1c2-1.4,4-1.8,5.4-1.8c0.6,0,1.1,0,1.5,0.1c1.4,0.2,4.1,1,6,3.7l44.6,61.5c3,4.1,2.1,10-2.1,13L469.8,662
	C465.6,665,459.8,664.1,456.8,660L456.8,660z"/>
<path class="st0" d="M830.5,810.9c-6.2-9-18.4-11.2-27.3-5c-9,6.2-11.2,18.4-5.1,27.3l147,213.7c3.8,5.5,10,8.5,16.2,8.5
	c3.8,0,7.7-1.1,11.1-3.5c9-6.2,11.2-18.4,5.1-27.3L830.5,810.9L830.5,810.9z"/>
<circle class="st0" cx="776.2" cy="769.4" r="20.4"/>
<path class="st0" d="M563.9,995c0-10.9-9.4-19.7-21.1-19.7H50.3c-7.1-43-11-87-11-132c0-443.3,360.7-804,804-804
	c213.2,0,407.1,83.6,551.1,219.4l29-26.6C1272.2,88.4,1067.9,0,843.3,0C378.3,0,0,378.3,0,843.3c0,44.9,3.6,89,10.4,132
	c2.1,13.2,4.4,26.3,7.1,39.3h525.3C554.4,1014.6,563.9,1005.8,563.9,995L563.9,995z"/>
<path class="st0" d="M1675.4,975.3h-581.1c-10.9,0-19.7,8.8-19.7,19.7s8.8,19.7,19.7,19.7h534.4
	c-78.7,361.3-400.9,632.7-785.4,632.7c-97.4,0-190.8-17.4-277.2-49.3l-14.3,36.6c90.9,33.6,189.1,52,291.5,52
	c406.3,0,746.4-288.8,825.8-672l0,0L1675.4,975.3L1675.4,975.3z"/>
</svg>
