<?xml version="1.0" encoding="UTF-8"?>
<svg id="Capa_2" data-name="Capa 2" xmlns="http://www.w3.org/2000/svg" viewBox="0 0 2433.77 547.04">
  <defs>
    <style>
      .cls-1 {
        fill: none;
        stroke: #1d1d1b;
        stroke-miterlimit: 10;
        stroke-width: 12.76px;
      }

      .cls-2, .cls-3 {
        stroke-width: 0px;
      }

      .cls-3 {
        fill: #1d1d1b;
      }
    </style>
  </defs>
  <g id="Capa_1-2" data-name="Capa 1">
    <g>
      <path class="cls-3" d="M525.5,273.53V97.72h49.73v175.81h-49.73Z"/>
      <path class="cls-3" d="M698.3,277.04c-13.9,0-26.75-2.22-38.55-6.66-11.8-4.43-22.02-10.76-30.64-18.96s-15.36-17.87-20.22-29.01c-4.86-11.13-7.28-23.4-7.28-36.8s2.42-25.66,7.28-36.79c4.85-11.14,11.59-20.81,20.22-29.01,8.62-8.2,18.84-14.52,30.64-18.96,11.8-4.43,24.66-6.66,38.55-6.66,16.24,0,30.77,2.85,43.58,8.54s23.48,13.9,32.03,24.61l-31.65,28.63c-5.69-6.7-11.93-11.8-18.71-15.32s-14.36-5.28-22.73-5.28c-7.2,0-13.81,1.18-19.84,3.52-6.03,2.35-11.18,5.74-15.45,10.17-4.27,4.44-7.62,9.76-10.04,15.95-2.43,6.2-3.64,13.06-3.64,20.59s1.21,14.4,3.64,20.6c2.42,6.19,5.78,11.51,10.04,15.95,4.27,4.44,9.42,7.83,15.45,10.17,6.02,2.35,12.64,3.51,19.84,3.51,8.37,0,15.95-1.76,22.73-5.27,6.78-3.52,13.02-8.62,18.71-15.32l31.65,28.63c-8.54,10.55-19.22,18.71-32.03,24.49s-27.34,8.67-43.58,8.67h0Z"/>
      <path class="cls-3" d="M880.88,277.04c-14.06,0-27.04-2.26-38.93-6.78s-22.23-10.93-31.02-19.22c-8.79-8.29-15.62-17.96-20.47-29.01-4.86-11.05-7.28-23.19-7.28-36.42s2.42-25.37,7.28-36.42c4.85-11.05,11.68-20.72,20.47-29.01,8.79-8.29,19.13-14.69,31.02-19.22,11.89-4.52,24.87-6.78,38.93-6.78s27.25,2.26,39.06,6.78c11.8,4.52,22.06,10.93,30.77,19.22,8.7,8.29,15.53,17.96,20.47,29.01s7.41,23.19,7.41,36.42-2.47,25.41-7.41,36.55c-4.94,11.14-11.77,20.81-20.47,29.01-8.71,8.21-18.96,14.57-30.77,19.09-11.8,4.52-24.83,6.78-39.06,6.78h0ZM880.88,235.85c6.7,0,12.94-1.17,18.71-3.51,5.78-2.35,10.8-5.73,15.07-10.17,4.27-4.43,7.62-9.75,10.05-15.95,2.42-6.19,3.64-13.06,3.64-20.6s-1.22-14.6-3.64-20.72c-2.43-6.11-5.78-11.39-10.05-15.82s-9.29-7.83-15.07-10.17c-5.78-2.34-12.02-3.52-18.71-3.52s-12.93,1.18-18.71,3.52c-5.78,2.35-10.8,5.74-15.07,10.17-4.27,4.44-7.62,9.71-10.04,15.82-2.43,6.12-3.64,13.02-3.64,20.72s1.21,14.4,3.64,20.6c2.42,6.19,5.78,11.51,10.04,15.95,4.27,4.44,9.3,7.83,15.07,10.17s12.01,3.51,18.71,3.51Z"/>
      <path class="cls-3" d="M1004.71,273.53V97.72h49.73v136.38h83.89v39.43h-133.62Z"/>
      <path class="cls-3" d="M1157.91,273.53V97.72h40.94l72.84,119.55h-21.6l70.83-119.55h40.94l.5,175.81h-45.71l-.5-106.24h7.79l-52.99,88.91h-22.1l-54.5-88.91h9.55v106.24h-45.99Z"/>
      <path class="cls-3" d="M1478.64,277.04c-25.96,0-46.22-7.12-60.78-21.35-14.57-14.23-21.85-34.41-21.85-60.53v-97.45h49.73v95.94c0,15.07,2.97,25.87,8.92,32.4,5.94,6.53,14.1,9.79,24.49,9.79s18.5-3.26,24.36-9.79c5.86-6.53,8.79-17.33,8.79-32.4v-95.94h48.98v97.45c0,26.12-7.28,46.3-21.85,60.53-14.57,14.23-34.83,21.35-60.78,21.35h-.01Z"/>
      <path class="cls-3" d="M1644.15,235.1h91.93v38.43h-141.15V97.72h137.89v38.43h-88.66v98.96h-.01ZM1640.64,165.78h81.63v37.17h-81.63v-37.17Z"/>
      <path class="cls-3" d="M1763.7,273.53V97.72h89.92c23.11,0,40.35,4.23,51.74,12.68s17.08,19.55,17.08,33.28c0,9.04-2.39,16.95-7.16,23.73-4.77,6.78-11.47,12.14-20.09,16.07-8.63,3.94-18.88,5.9-30.77,5.9l5.02-12.06c12.39,0,23.19,1.89,32.4,5.65,9.21,3.77,16.36,9.21,21.47,16.33,5.1,7.12,7.66,15.79,7.66,26,0,15.24-6.15,27.08-18.46,35.54-12.31,8.46-30.26,12.68-53.87,12.68h-94.94,0ZM1812.93,237.61h41.7c8.54,0,15.03-1.47,19.46-4.4,4.43-2.93,6.66-7.41,6.66-13.44s-2.22-10.5-6.66-13.44c-4.44-2.93-10.93-4.4-19.46-4.4h-45.21v-34.41h37.67c8.37,0,14.65-1.42,18.84-4.27,4.18-2.84,6.28-7.12,6.28-12.81s-2.1-9.92-6.28-12.68c-4.19-2.76-10.47-4.14-18.84-4.14h-34.16v103.98h0Z"/>
      <path class="cls-3" d="M1956.85,273.53V97.72h49.73v136.38h83.89v39.43h-133.62,0Z"/>
      <path class="cls-3" d="M2159.28,235.1h91.93v38.43h-141.15V97.72h137.89v38.43h-88.66v98.96h-.01ZM2155.76,165.78h81.63v37.17h-81.63v-37.17Z"/>
      <path class="cls-3" d="M2340.62,277.04c-14.4,0-28.25-1.8-41.57-5.4-13.31-3.6-24.16-8.24-32.53-13.94l16.33-36.67c7.87,5.02,16.95,9.16,27.25,12.43,10.3,3.26,20.55,4.9,30.77,4.9,6.86,0,12.39-.63,16.58-1.88,4.18-1.26,7.24-2.93,9.17-5.02,1.92-2.09,2.89-4.56,2.89-7.41,0-4.02-1.84-7.2-5.53-9.54-3.68-2.34-8.45-4.27-14.31-5.78-5.87-1.51-12.35-3.01-19.46-4.52-7.12-1.51-14.24-3.43-21.35-5.78-7.12-2.34-13.61-5.4-19.46-9.16-5.86-3.77-10.63-8.71-14.32-14.82-3.69-6.11-5.53-13.86-5.53-23.24,0-10.55,2.89-20.09,8.67-28.63s14.44-15.4,26-20.59c11.55-5.19,25.95-7.79,43.2-7.79,11.56,0,22.89,1.3,34.03,3.89,11.13,2.6,21.05,6.4,29.76,11.43l-15.32,36.92c-8.37-4.52-16.66-7.91-24.87-10.17-8.2-2.26-16.16-3.39-23.86-3.39-6.87,0-12.39.72-16.58,2.14-4.19,1.42-7.2,3.31-9.04,5.65-1.85,2.35-2.77,5.02-2.77,8.03,0,3.86,1.8,6.91,5.4,9.17,3.6,2.26,8.37,4.11,14.32,5.53,5.94,1.42,12.47,2.89,19.59,4.4s14.23,3.39,21.35,5.65c7.11,2.26,13.6,5.27,19.46,9.04,5.86,3.77,10.59,8.71,14.19,14.82,3.6,6.12,5.4,13.78,5.4,22.98,0,10.21-2.89,19.64-8.67,28.25-5.78,8.63-14.4,15.53-25.87,20.72-11.47,5.19-25.91,7.79-43.32,7.79h0Z"/>
    </g>
    <path class="cls-3" d="M2427.39,329.09H354.93c-3.52,0-6.38-2.86-6.38-6.38s2.85-6.38,6.38-6.38h2072.46c3.52,0,6.38,2.86,6.38,6.38s-2.86,6.38-6.38,6.38h0Z"/>
    <path class="cls-3" d="M411.59,271.2c-1.87,0-3.72-.81-4.97-2.38l-22.88-28.43c-.58-.72-1-1.57-1.22-2.47l-5.09-20.62c-8.59-1.64-35.08-2.81-70.94,31.98l-8.89-9.15c49.52-48.06,85.92-34.55,87.44-33.95,1.93.76,3.36,2.4,3.86,4.41l5.65,22.89,18.08,22.46,45.17-34.74c-3.35-6.69-11.64-19.86-27.11-26.04-1.91-.76-3.33-2.41-3.82-4.41-.19-.78-19.65-78.07-70.73-101.69-19.11-8.84-40.55-9.08-63.93-.76,17.64,6.66,42.39,20.69,43.92,47.19,2.29,39.65-54.32,70.55-56.73,71.84l-6.04-11.24c.52-.28,51.86-28.32,50.04-59.88-1.77-30.63-50.62-40.46-51.11-40.55-2.68-.52-4.74-2.69-5.11-5.39-.37-2.71,1.02-5.35,3.46-6.57,33.26-16.64,63.85-18.73,90.9-6.2,51.1,23.67,72.57,91.52,76.9,107.12,24.36,11.34,32.88,35.46,33.25,36.53.89,2.59.02,5.46-2.15,7.12l-54.08,41.6c-1.15.89-2.52,1.32-3.88,1.32h.01Z"/>
    <path class="cls-3" d="M370.61,493.91c-3.14,0-7.9-.67-12-4.06-4.51-3.73-6.79-9.46-6.79-17.04v-23.55l-31.87-.58c-3.34-.06-6.07-2.69-6.25-6.04l-1.77-33.1-33.1-1.77c-3.3-.18-5.91-2.84-6.03-6.14l-1.18-32.39-34.48-2.38c-3.3-.22-5.88-2.94-5.94-6.24l-.58-31.52h-33.95c-3.52,0-6.38-2.86-6.38-6.38v-28.11c-11.68-.82-35.4-4.92-44.16-24.49-7.62-2.37-26.25-9.6-36.67-26.15-11.15-17.7-31.94-48.94-33.75-51.67-1.42-1.86-8.12-11.26-6.9-21.68.65-5.53,3.46-10.4,8.13-14.09,5.14-4.06,10.87-5.82,16.52-5.07,5.11.66,9.2,3.18,11.98,5.49l50.46-30.64c-.69-8.39-.54-24.74,10.19-30.1,11.23-5.6,22.79,3.17,27.85,9.25.15.17.28.36.41.55l228.78,343.87c1.87,2.81,1.22,6.59-1.47,8.63l-45.06,33.97c-.78.59-1.69.99-2.64,1.17-.32.06-1.57.27-3.34.27h0ZM326.12,436.03l32.2.59c3.48.06,6.26,2.9,6.26,6.38v29.81c0,2.47.38,5.72,2.17,7.21,1.09.9,2.62,1.11,3.66,1.13l38.77-29.23L183.95,113.39c-1.81-2.03-8.07-7.82-12.16-5.78-3.11,1.55-4.05,12.6-2.79,21.08.38,2.54-.8,5.07-3,6.4l-58.24,35.36c-2.8,1.71-6.45,1-8.41-1.62-.88-1.14-4.04-4.3-7.61-4.73-2.24-.27-4.48.53-6.91,2.45-7.83,6.18.13,16.89,1.07,18.09.1.12.21.27.29.4.22.33,22.37,33.56,34.06,52.14,10.19,16.18,31.87,21.4,32.09,21.45,2.16.51,3.92,2.1,4.62,4.2,6.69,20.08,39.17,19.22,39.48,19.22,1.77-.11,3.41.59,4.65,1.79,1.24,1.2,1.95,2.86,1.95,4.58v27.94h33.83c3.48,0,6.31,2.79,6.38,6.26l.59,31.94,34.38,2.37c3.26.22,5.82,2.87,5.94,6.13l1.18,32.3,33,1.77c3.26.17,5.85,2.77,6.03,6.03l1.76,32.89v-.02Z"/>
    <rect class="cls-1" x="129.21" y="166.03" width="68.58" height="43.41" rx="9.39" ry="9.39" transform="translate(-79.06 131.66) rotate(-35.93)"/>
    <path class="cls-3" d="M150.9,271.2c-3.28,0-6.07-2.52-6.35-5.85-.29-3.51,2.31-6.59,5.82-6.89.34-.03,34.17-2.96,48.97-12.64,15.95-10.43,53.08-39.31,53.45-39.6,2.78-2.16,6.78-1.67,8.95,1.12,2.16,2.78,1.66,6.78-1.11,8.95-1.54,1.2-37.92,29.5-54.31,40.21-17.51,11.45-53.38,14.55-54.89,14.68-.18.01-.36.02-.54.02h0Z"/>
    <path class="cls-3" d="M311.79,342.33c-2.03,0-4.02-.96-5.26-2.76l-47.69-69.31c-2-2.9-1.26-6.87,1.64-8.87,2.89-2,6.87-1.27,8.87,1.64l47.69,69.31c2,2.9,1.26,6.87-1.64,8.87-1.1.76-2.36,1.13-3.61,1.13h0Z"/>
    <circle class="cls-3" cx="251.74" cy="249.54" r="6.61"/>
    <rect class="cls-3" x="309.32" y="179.71" width="12.76" height="47.92" transform="translate(-59 231.07) rotate(-37.01)"/>
    <g>
      <path class="cls-2" d="M12.74,273.53C12.74,129.74,129.72,12.76,273.51,12.76c69.14,0,132.04,27.1,178.76,71.17l9.42-8.63C412.62,28.69,346.38,0,273.52,0,122.7,0,0,122.7,0,273.52c0,14.56,1.17,28.86,3.37,42.81h12.96c-2.31-13.94-3.57-28.23-3.57-42.81h-.02Z"/>
      <path class="cls-2" d="M182.88,322.72c0-3.52-3.06-6.38-6.83-6.38H16.32c.71,4.29,1.53,8.54,2.44,12.76h157.29c3.77,0,6.83-2.86,6.83-6.38Z"/>
      <path class="cls-2" d="M16.31,316.34H3.35c.68,4.28,1.44,8.54,2.31,12.76h13.09c-.92-4.22-1.73-8.47-2.44-12.76h0Z"/>
      <path class="cls-2" d="M528.25,329.09c-25.54,117.17-130.03,205.2-254.75,205.2-31.59,0-61.87-5.65-89.92-15.99l-4.63,11.88c29.48,10.9,61.33,16.86,94.55,16.86,131.79,0,242.09-93.69,267.84-217.96h-13.09Z"/>
    </g>
  </g>
</svg>